<svg width="950" height="59" viewBox="0 0 950 59" fill="none" xmlns="http://www.w3.org/2000/svg">
<path d="M29.0049 13.4832C28.8449 12.9432 28.4749 12.3332 27.5649 11.7432C26.6549 11.1432 25.9549 10.7432 24.4549 10.5132C22.9549 10.2932 21.9249 10.1632 20.0549 10.6332C18.1949 11.0932 17.1049 11.5432 15.1249 12.8232C13.1549 14.1032 12.0049 15.0432 10.1749 17.0232C8.35486 19.0032 7.34486 20.3032 6.00486 22.7232C4.67486 25.1432 4.06486 26.6132 3.50486 29.1232C2.94486 31.6332 2.86487 33.0332 3.19487 35.2832C3.53487 37.5232 3.99486 38.6132 5.17486 40.3632C6.35486 42.1232 7.24487 42.8832 9.10487 44.0532C10.9549 45.2232 12.1649 45.6732 14.4349 46.2032C16.7149 46.7332 18.0549 46.7832 20.4849 46.7232C22.9149 46.6532 24.2249 46.4532 26.5849 45.8832C28.9449 45.3032 30.1849 44.8932 32.2749 43.8432C34.3549 42.7932 35.3949 42.0932 37.0349 40.6232C38.6749 39.1532 39.4049 38.2632 40.4749 36.4732C41.5349 34.6832 41.9449 33.6332 42.3549 31.6632C42.7649 29.6932 42.7749 28.5632 42.5249 26.6432C42.2749 24.7132 41.9549 23.7132 41.1049 22.0332C40.2549 20.3632 39.5949 19.5332 38.2849 18.2532C36.9749 16.9832 36.1249 16.4332 34.5549 15.6632C32.9949 14.9032 32.0449 14.6532 30.4549 14.4332C28.8749 14.2132 27.9249 14.2732 26.6349 14.5532C25.3449 14.8432 24.7449 15.3032 24.0149 15.8532C23.2849 16.4032 23.0849 16.8932 22.9749 17.3132C22.8649 17.7332 23.0849 17.9032 23.4649 17.9432C23.8449 17.9832 24.1449 17.6932 24.8549 17.5032C25.5749 17.3132 25.9949 17.1032 27.0449 16.9932C28.0849 16.8932 28.8049 16.7832 30.0849 16.9732C31.3649 17.1732 32.1549 17.3432 33.4449 17.9632C34.7249 18.5932 35.4349 19.0432 36.5249 20.0832C37.6049 21.1232 38.1649 21.7932 38.8649 23.1732C39.5749 24.5432 39.8249 25.3732 40.0349 26.9632C40.2449 28.5632 40.2649 29.5132 39.9249 31.1632C39.5949 32.8132 39.2749 33.6932 38.3649 35.2132C37.4549 36.7332 36.8149 37.4932 35.3749 38.7532C33.9249 40.0132 33.0049 40.6132 31.1249 41.5232C29.2449 42.4232 28.1049 42.7832 25.9649 43.2732C23.8249 43.7732 22.5949 43.9332 20.4049 43.9932C18.2149 44.0632 17.0149 44.0132 15.0149 43.6032C13.0049 43.1932 11.9649 42.8432 10.3649 41.9432C8.77486 41.0432 8.01487 40.4832 7.04487 39.0832C6.07487 37.6932 5.72487 36.8432 5.52487 34.9732C5.32487 33.1132 5.44487 31.9132 6.04487 29.7432C6.63487 27.5832 7.22487 26.2732 8.48487 24.1332C9.74487 21.9932 10.7049 20.8032 12.3449 19.0232C13.9949 17.2532 15.0349 16.3732 16.7149 15.2432C18.4049 14.1132 19.2749 13.7632 20.7549 13.3732C22.2349 12.9832 22.9649 13.1832 24.1249 13.2832C25.2949 13.3832 25.7349 13.6432 26.5749 13.8632C27.4249 14.0832 27.8749 14.4732 28.3549 14.3932C28.8449 14.3132 29.1549 14.0132 29.0049 13.4832Z" fill="black" stroke="black"/>
<path d="M75.3146 13.3121C75.1246 12.8621 74.7846 12.4721 73.9346 12.0621C73.0846 11.6521 72.4546 11.392 71.0746 11.272C69.6846 11.152 68.7046 11.1321 67.0146 11.4521C65.3146 11.7721 64.3146 12.1521 62.5946 12.8621C60.8646 13.5621 59.8746 14.032 58.3846 14.992C56.8946 15.942 56.0846 16.5121 55.1246 17.6421C54.1546 18.7821 53.7846 19.4521 53.5646 20.6621C53.3546 21.8621 53.4746 22.5421 54.0746 23.6821C54.6646 24.8221 55.2446 25.3821 56.5446 26.3621C57.8346 27.3421 58.7746 27.7621 60.5546 28.5821C62.3346 29.4021 63.4546 29.732 65.4446 30.462C67.4246 31.202 68.5746 31.5421 70.4746 32.2521C72.3846 32.9621 73.3946 33.3321 74.9646 34.0021C76.5246 34.6821 77.2646 35.0321 78.3146 35.6321C79.3546 36.2321 79.7546 36.512 80.1746 36.992C80.5946 37.462 80.6346 37.6221 80.4346 38.0121C80.2346 38.3921 79.9446 38.5321 79.1846 38.9321C78.4246 39.3321 77.8646 39.572 76.6246 40.022C75.3846 40.472 74.5646 40.7721 72.9846 41.1821C71.4046 41.5921 70.4346 41.8021 68.7246 42.0921C67.0246 42.3721 66.0546 42.4621 64.4446 42.5821C62.8246 42.7021 61.9746 42.6721 60.6646 42.6821C59.3546 42.6821 58.8046 42.6721 57.8946 42.6021C56.9946 42.5421 56.5646 42.2521 56.1446 42.3521C55.7146 42.4521 55.5346 42.6921 55.7846 43.1021C56.0446 43.5221 56.4746 44.0121 57.4146 44.4321C58.3646 44.8421 59.0746 45.0221 60.5046 45.1921C61.9346 45.3721 62.8446 45.3621 64.5746 45.3221C66.3046 45.2721 67.3146 45.1921 69.1446 44.9621C70.9846 44.7221 72.0146 44.5621 73.7446 44.1321C75.4646 43.6921 76.3946 43.432 77.7746 42.772C79.1646 42.122 79.8246 41.7021 80.6846 40.8521C81.5346 39.9921 81.8546 39.4521 82.0546 38.4821C82.2546 37.5221 82.1746 36.972 81.6846 36.022C81.1946 35.072 80.7146 34.612 79.5946 33.742C78.4746 32.862 77.6846 32.4721 76.0646 31.6521C74.4546 30.8321 73.4246 30.4221 71.5046 29.6321C69.5946 28.8321 68.4446 28.4421 66.5046 27.6721C64.5546 26.9121 63.4746 26.522 61.7846 25.802C60.0846 25.082 59.2246 24.7221 58.0246 24.0821C56.8346 23.4321 56.3146 23.1721 55.7846 22.5721C55.2546 21.9721 55.1746 21.7121 55.3846 21.0621C55.5946 20.4221 55.9346 20.0621 56.8246 19.3321C57.7046 18.6021 58.4446 18.1521 59.8146 17.4121C61.1846 16.6721 62.1346 16.2321 63.6846 15.6521C65.2446 15.0721 66.1346 14.7821 67.5946 14.5021C69.0446 14.2221 69.8246 14.282 70.9846 14.242C72.1346 14.202 72.5846 14.2821 73.3646 14.2821C74.1546 14.2921 74.5146 14.4821 74.9046 14.2821C75.2946 14.0921 75.5146 13.7521 75.3146 13.3121Z" fill="black" stroke="black"/>
<path d="M92.8943 19.2333C92.6043 19.6133 92.5243 19.9933 92.4343 21.0233C92.3343 22.0533 92.3043 22.7833 92.4343 24.3733C92.5743 25.9633 92.7843 27.0933 93.1143 28.9933C93.4343 30.8933 93.6843 31.9933 94.0743 33.8633C94.4543 35.7333 94.6543 36.7233 95.0343 38.3533C95.4143 39.9833 95.5943 40.7633 95.9843 42.0133C96.3743 43.2533 96.6243 43.7733 96.9743 44.5833C97.3343 45.3933 97.4443 45.6533 97.7543 46.0733C98.0643 46.4933 98.2743 46.5633 98.5243 46.6833C98.7743 46.8033 98.8643 46.7333 99.0043 46.6733C99.1443 46.6233 99.1343 46.5233 99.2043 46.4133C99.2743 46.3033 99.3143 46.3433 99.3343 46.1333C99.3643 45.9233 99.4143 45.8233 99.3343 45.3733C99.2543 44.9233 99.1543 44.6833 98.9443 43.8933C98.7343 43.1033 98.5443 42.6133 98.2743 41.4033C98.0043 40.1833 97.8643 39.4433 97.5943 37.8333C97.3343 36.2333 97.2043 35.2433 96.9543 33.3733C96.6943 31.5033 96.6043 30.3733 96.3343 28.4833C96.0543 26.5833 95.8943 25.4633 95.5743 23.9133C95.2443 22.3633 95.0343 21.7033 94.7043 20.7433C94.3643 19.7833 94.2443 19.4333 93.8843 19.1333C93.5243 18.8333 93.1943 18.8633 92.8943 19.2333Z" fill="black" stroke="black"/>
<path d="M109.985 25.8433C109.755 26.2933 109.755 26.7633 109.845 27.7733C109.935 28.7833 110.055 29.5134 110.445 30.8934C110.835 32.2634 111.205 33.2034 111.805 34.6334C112.415 36.0734 112.825 36.8833 113.455 38.0933C114.085 39.2933 114.365 39.9034 114.945 40.6634C115.525 41.4334 115.815 41.7133 116.345 41.9033C116.865 42.1033 117.195 42.0234 117.575 41.6434C117.945 41.2734 118.145 40.9233 118.215 40.0233C118.295 39.1333 118.205 38.5034 117.945 37.1634C117.685 35.8334 117.355 34.9333 116.915 33.3433C116.465 31.7633 116.195 30.7534 115.715 29.2234C115.225 27.6834 114.925 26.7734 114.485 25.6734C114.055 24.5734 113.785 24.1034 113.545 23.7334C113.295 23.3534 113.145 23.4034 113.275 23.7934C113.405 24.1734 113.505 24.6534 114.165 25.6434C114.835 26.6334 115.425 27.4034 116.595 28.7334C117.755 30.0634 118.575 30.8933 119.975 32.3033C121.385 33.7233 122.205 34.5233 123.635 35.8033C125.055 37.0933 125.815 37.7433 127.105 38.7433C128.395 39.7533 129.005 40.2034 130.085 40.8334C131.165 41.4634 131.625 41.7333 132.515 41.9033C133.405 42.0833 133.855 42.0534 134.535 41.6934C135.205 41.3334 135.525 40.9934 135.895 40.1034C136.265 39.2034 136.365 38.5534 136.375 37.2034C136.395 35.8534 136.265 34.9433 135.995 33.3433C135.725 31.7333 135.455 30.7534 135.025 29.1934C134.605 27.6334 134.325 26.8034 133.875 25.5334C133.425 24.2734 133.145 23.7033 132.775 22.8733C132.395 22.0333 132.275 21.7634 132.005 21.3534C131.725 20.9434 131.555 20.9434 131.395 20.8334C131.235 20.7134 131.285 20.8133 131.195 20.7733C131.095 20.7333 131.055 20.6034 130.925 20.6334C130.785 20.6634 130.635 20.6934 130.525 20.9434C130.415 21.1934 130.335 21.3634 130.355 21.8834C130.385 22.4134 130.465 22.6934 130.665 23.5734C130.855 24.4534 131.045 25.0133 131.335 26.2733C131.625 27.5333 131.815 28.3434 132.095 29.8634C132.375 31.3834 132.515 32.3534 132.745 33.8634C132.985 35.3734 133.075 36.2434 133.275 37.4234C133.465 38.5934 133.615 39.1234 133.735 39.7534C133.855 40.3734 134.005 40.4634 133.885 40.5434C133.765 40.6334 133.635 40.5034 133.135 40.1734C132.625 39.8534 132.235 39.6033 131.365 38.9333C130.485 38.2533 129.895 37.8033 128.745 36.7733C127.585 35.7533 126.865 35.1034 125.575 33.7834C124.275 32.4634 123.555 31.6434 122.265 30.1734C120.985 28.7034 120.355 27.7333 119.135 26.4333C117.915 25.1233 117.245 24.4133 116.175 23.6533C115.095 22.9033 114.565 22.6633 113.775 22.6533C112.975 22.6333 112.575 22.8534 112.205 23.5734C111.835 24.3034 111.815 24.9734 111.925 26.2634C112.035 27.5534 112.405 28.4333 112.755 30.0233C113.115 31.6033 113.345 32.5734 113.705 34.1634C114.065 35.7534 114.195 36.7034 114.575 37.9834C114.955 39.2734 115.175 39.8634 115.595 40.5834C116.015 41.3134 116.335 41.4833 116.675 41.5933C117.025 41.7133 117.255 41.5634 117.325 41.1634C117.395 40.7634 117.295 40.4234 117.035 39.5834C116.775 38.7334 116.475 38.1734 116.035 36.9534C115.585 35.7334 115.335 34.8833 114.815 33.4633C114.305 32.0433 113.985 31.1234 113.455 29.8334C112.915 28.5534 112.625 27.9133 112.135 27.0533C111.645 26.1933 111.415 25.7933 110.985 25.5533C110.555 25.3133 110.215 25.4033 109.985 25.8433Z" fill="black" stroke="black"/>
<path d="M152.033 20.3734C151.703 20.6834 151.533 20.9735 151.333 21.9235C151.143 22.8735 151.013 23.6234 151.073 25.1234C151.123 26.6334 151.253 27.7035 151.603 29.4535C151.943 31.1935 152.243 32.2434 152.783 33.8434C153.323 35.4434 153.663 36.2635 154.303 37.4535C154.943 38.6335 155.393 39.0934 155.993 39.7434C156.593 40.4034 156.923 40.6235 157.303 40.7335C157.683 40.8435 157.863 40.6934 157.913 40.3134C157.953 39.9334 157.773 39.6135 157.513 38.8335C157.253 38.0635 156.993 37.5934 156.603 36.4334C156.223 35.2734 155.933 34.5535 155.583 33.0435C155.233 31.5235 155.113 30.5234 154.863 28.8734C154.603 27.2234 154.533 26.2035 154.293 24.7935C154.043 23.3935 153.903 22.7234 153.643 21.8434C153.383 20.9534 153.313 20.6835 152.993 20.3935C152.673 20.0935 152.363 20.0734 152.033 20.3734Z" fill="black" stroke="black"/>
<path d="M136.834 19.4738C137.154 19.6338 137.264 19.5138 137.964 19.4538C138.664 19.4038 139.074 19.3638 140.344 19.1938C141.614 19.0338 142.434 18.8538 144.314 18.6338C146.184 18.4138 147.424 18.2938 149.734 18.0838C152.034 17.8738 153.374 17.7438 155.814 17.5838C158.254 17.4238 159.594 17.3338 161.934 17.2838C164.284 17.2238 165.484 17.2438 167.554 17.2838C169.624 17.3238 170.604 17.4138 172.294 17.4738C173.994 17.5338 175.254 17.7638 176.034 17.5738C176.824 17.3938 176.914 17.0238 176.224 16.5738C175.534 16.1138 174.284 15.6838 172.574 15.3038C170.854 14.9338 169.804 14.8638 167.674 14.7138C165.534 14.5638 164.304 14.5638 161.904 14.5638C159.504 14.5538 158.154 14.6038 155.664 14.6938C153.184 14.7838 151.844 14.8538 149.494 15.0038C147.144 15.1538 145.874 15.1838 143.914 15.4438C141.954 15.6938 141.044 15.8738 139.704 16.2838C138.364 16.6838 137.864 16.9938 137.194 17.4738C136.524 17.9538 136.414 18.2838 136.344 18.6838C136.264 19.0838 136.504 19.3238 136.834 19.4738Z" fill="black" stroke="black"/>
<path d="M224.125 20.6337C223.795 20.9337 223.655 21.2337 223.465 22.1537C223.275 23.0737 223.145 23.7637 223.185 25.2437C223.215 26.7137 223.375 27.7637 223.645 29.5437C223.915 31.3237 224.165 32.3837 224.545 34.1337C224.915 35.8737 225.145 36.8137 225.515 38.2637C225.895 39.7137 226.075 40.3837 226.425 41.3737C226.775 42.3537 226.885 42.7637 227.295 43.1937C227.705 43.6237 228.055 43.7137 228.465 43.5437C228.865 43.3637 229.165 43.1037 229.325 42.3037C229.485 41.5137 229.455 40.9237 229.275 39.5637C229.095 38.2037 228.845 37.2837 228.425 35.5037C228.005 33.7237 227.675 32.6037 227.165 30.6837C226.665 28.7637 226.395 27.6637 225.915 25.8937C225.435 24.1237 225.185 23.2337 224.775 21.8237C224.355 20.4037 224.195 19.7437 223.825 18.8237C223.455 17.9037 223.275 17.5337 222.925 17.2137C222.575 16.9037 222.205 16.8837 222.065 17.2637C221.915 17.6337 221.815 18.0537 222.185 19.0737C222.555 20.0937 222.975 20.8537 223.905 22.3537C224.845 23.8537 225.515 24.8337 226.865 26.5837C228.215 28.3337 229.095 29.4037 230.675 31.1237C232.245 32.8437 233.125 33.7237 234.735 35.1937C236.345 36.6637 237.175 37.3237 238.725 38.4637C240.275 39.6037 241.075 40.1137 242.485 40.9037C243.895 41.7037 244.545 42.0237 245.775 42.4337C247.015 42.8537 247.585 42.9837 248.635 42.9637C249.695 42.9337 250.205 42.8237 251.045 42.3137C251.895 41.8037 252.265 41.4137 252.865 40.3937C253.455 39.3837 253.675 38.7237 254.015 37.2337C254.345 35.7437 254.435 34.7837 254.535 32.9537C254.635 31.1337 254.605 30.0337 254.505 28.1037C254.395 26.1737 254.295 25.1037 254.025 23.3037C253.745 21.5137 253.555 20.6037 253.145 19.1237C252.735 17.6537 252.445 16.9937 251.975 15.9437C251.505 14.9037 251.235 14.4837 250.795 13.9137C250.345 13.3537 250.065 13.2937 249.745 13.1237C249.435 12.9537 249.365 13.0337 249.195 13.0737C249.035 13.1137 248.995 13.1737 248.925 13.3137C248.855 13.4637 248.815 13.4637 248.845 13.7737C248.875 14.0837 248.875 14.2637 249.075 14.8637C249.275 15.4737 249.525 15.8137 249.845 16.7937C250.175 17.7637 250.415 18.3537 250.705 19.7237C250.995 21.1037 251.135 21.9537 251.305 23.6537C251.475 25.3437 251.515 26.3737 251.545 28.2037C251.575 30.0337 251.535 31.0937 251.445 32.7937C251.365 34.5037 251.275 35.4037 251.125 36.7337C250.975 38.0637 250.915 38.6237 250.695 39.4337C250.475 40.2337 250.415 40.4437 250.025 40.7537C249.625 41.0637 249.395 41.0637 248.705 40.9737C248.015 40.8937 247.575 40.7637 246.565 40.3337C245.565 39.9037 244.965 39.6037 243.695 38.8337C242.435 38.0637 241.675 37.5837 240.245 36.4637C238.825 35.3537 238.045 34.7137 236.575 33.2537C235.105 31.8037 234.315 30.9037 232.895 29.1937C231.475 27.4737 230.695 26.4137 229.465 24.6637C228.245 22.9237 227.765 21.8937 226.775 20.4637C225.775 19.0437 225.305 18.3137 224.485 17.5437C223.655 16.7737 223.215 16.6537 222.655 16.6337C222.095 16.6137 221.865 16.8937 221.675 17.4437C221.475 17.9937 221.535 18.3937 221.675 19.3937C221.805 20.3937 222.045 21.0037 222.345 22.4337C222.655 23.8637 222.845 24.7437 223.205 26.5337C223.565 28.3237 223.775 29.4337 224.165 31.3737C224.555 33.3137 224.785 34.4537 225.155 36.2337C225.525 38.0037 225.645 38.9537 226.025 40.2537C226.405 41.5537 226.645 42.0937 227.065 42.7237C227.485 43.3537 227.815 43.4037 228.145 43.4037C228.475 43.4137 228.615 43.2437 228.715 42.7337C228.815 42.2237 228.775 41.8437 228.655 40.8437C228.535 39.8337 228.345 39.1637 228.105 37.7137C227.875 36.2737 227.715 35.3337 227.475 33.6137C227.235 31.8837 227.125 30.8137 226.895 29.0837C226.675 27.3537 226.575 26.3537 226.345 24.9437C226.115 23.5437 225.995 22.9337 225.745 22.0737C225.495 21.2137 225.415 20.9237 225.095 20.6337C224.765 20.3437 224.445 20.3237 224.125 20.6337Z" fill="black" stroke="black"/>
<path d="M266.677 36.5823C267.057 36.8223 267.466 36.8423 268.256 36.7723C269.046 36.7023 269.597 36.5923 270.647 36.2423C271.687 35.8823 272.387 35.5923 273.487 35.0023C274.577 34.4023 275.186 33.9923 276.136 33.2523C277.096 32.5123 277.586 32.1123 278.256 31.3023C278.926 30.4823 279.246 30.0223 279.496 29.1623C279.756 28.2923 279.777 27.7823 279.527 26.9723C279.287 26.1623 279.007 25.7023 278.267 25.1123C277.527 24.5223 276.976 24.2423 275.826 24.0323C274.676 23.8323 273.917 23.8123 272.527 24.0823C271.137 24.3523 270.297 24.6523 268.897 25.3923C267.497 26.1223 266.697 26.6723 265.547 27.7823C264.397 28.8923 263.807 29.6123 263.147 30.9423C262.487 32.2723 262.256 33.0923 262.246 34.4423C262.236 35.7923 262.416 36.5223 263.096 37.6823C263.776 38.8423 264.346 39.4123 265.626 40.2623C266.916 41.1023 267.787 41.4423 269.527 41.9023C271.257 42.3723 272.287 42.4623 274.277 42.5623C276.267 42.6623 277.406 42.6023 279.476 42.3923C281.536 42.1723 282.637 41.9623 284.617 41.4923C286.607 41.0223 287.606 40.7023 289.386 40.0523C291.166 39.4023 292.007 39.0223 293.517 38.2423C295.027 37.4523 295.716 37.0023 296.936 36.1023C298.156 35.2123 298.686 34.7323 299.616 33.7823C300.546 32.8323 300.917 32.2923 301.587 31.3623C302.257 30.4323 302.496 29.9223 302.946 29.1323C303.406 28.3323 303.576 27.9523 303.856 27.3823C304.126 26.8223 304.176 26.6023 304.326 26.3023C304.476 25.9923 304.497 25.9523 304.597 25.8423C304.707 25.7223 304.737 25.8423 304.837 25.7423C304.937 25.6323 305.097 25.5923 305.087 25.3323C305.077 25.0623 304.966 24.6323 304.806 24.4123C304.646 24.1923 304.517 24.2123 304.277 24.2423C304.037 24.2623 303.896 24.3523 303.606 24.5423C303.316 24.7223 303.156 24.8423 302.816 25.1823C302.486 25.5223 302.336 25.7023 301.946 26.2423C301.556 26.7823 301.336 27.1423 300.876 27.8823C300.406 28.6323 300.206 29.1123 299.616 29.9523C299.016 30.7923 298.717 31.2623 297.897 32.1023C297.087 32.9423 296.627 33.3623 295.527 34.1523C294.427 34.9323 293.797 35.3323 292.397 36.0323C290.997 36.7223 290.207 37.0523 288.527 37.6223C286.857 38.1823 285.897 38.4623 284.027 38.8523C282.167 39.2523 281.127 39.4323 279.207 39.6023C277.287 39.7623 276.226 39.7823 274.416 39.6923C272.616 39.6023 271.686 39.4823 270.196 39.1623C268.696 38.8323 267.977 38.5823 266.927 38.0523C265.887 37.5223 265.466 37.2123 264.976 36.5123C264.486 35.8023 264.407 35.4023 264.487 34.5323C264.567 33.6623 264.786 33.1123 265.376 32.1823C265.976 31.2423 266.476 30.6923 267.446 29.8623C268.426 29.0223 269.116 28.5923 270.256 28.0123C271.396 27.4423 272.086 27.2323 273.136 26.9823C274.196 26.7423 274.737 26.7723 275.527 26.7823C276.307 26.7923 276.626 26.8723 277.066 27.0323C277.506 27.1823 277.637 27.2723 277.737 27.5523C277.827 27.8223 277.817 27.9823 277.557 28.3823C277.307 28.7923 277.066 29.0823 276.466 29.5923C275.866 30.1023 275.437 30.4223 274.557 30.9523C273.677 31.4723 273.077 31.7223 272.057 32.2023C271.037 32.6823 270.376 32.9023 269.446 33.3623C268.526 33.8223 268.056 34.0723 267.436 34.5123C266.816 34.9523 266.506 35.1623 266.346 35.5723C266.196 35.9823 266.297 36.3423 266.677 36.5823Z" fill="black" stroke="black"/>
<path d="M286.295 33.1937C286.555 33.4437 286.755 33.3637 287.285 33.4537C287.805 33.5437 288.065 33.5837 288.915 33.6737C289.765 33.7537 290.315 33.7337 291.525 33.8937C292.725 34.0637 293.495 34.1937 294.935 34.5037C296.375 34.8237 297.215 35.0337 298.725 35.4637C300.245 35.8837 301.055 36.1537 302.515 36.6437C303.985 37.1337 304.705 37.4337 306.035 37.9237C307.375 38.4137 308.015 38.6837 309.195 39.1137C310.375 39.5337 310.905 39.7437 311.925 40.0337C312.945 40.3337 313.435 40.5237 314.305 40.5937C315.175 40.6737 315.645 40.5837 316.275 40.4237C316.905 40.2637 317.115 40.0937 317.445 39.8137C317.765 39.5337 317.885 39.3037 317.885 39.0237C317.885 38.7437 317.655 38.5337 317.445 38.4037C317.235 38.2737 317.105 38.3937 316.815 38.3837C316.525 38.3737 316.425 38.3637 315.985 38.3537C315.535 38.3537 315.255 38.4637 314.585 38.3537C313.915 38.2437 313.545 38.0937 312.635 37.7837C311.735 37.4737 311.205 37.2437 310.075 36.7937C308.945 36.3437 308.305 36.0537 306.975 35.5137C305.645 34.9737 304.905 34.6637 303.425 34.1037C301.945 33.5437 301.125 33.2337 299.565 32.7237C298.005 32.2137 297.165 31.9337 295.635 31.5437C294.105 31.1537 293.265 30.9337 291.915 30.7737C290.575 30.6237 289.905 30.6537 288.895 30.7537C287.895 30.8537 287.485 30.9937 286.895 31.2937C286.305 31.5837 286.075 31.8437 285.955 32.2237C285.825 32.6037 286.025 32.9537 286.295 33.1937Z" fill="black" stroke="black"/>
<path d="M322.084 28.3123C321.804 28.5623 321.744 28.7423 321.654 29.3323C321.564 29.9323 321.454 30.3523 321.644 31.2823C321.824 32.2123 322.024 32.9323 322.574 34.0023C323.114 35.0823 323.524 35.6923 324.354 36.6423C325.184 37.5823 325.684 38.0623 326.724 38.7323C327.764 39.4023 328.374 39.6823 329.554 39.9923C330.724 40.3023 331.374 40.3623 332.594 40.2923C333.824 40.2323 334.474 40.1023 335.684 39.6823C336.884 39.2623 337.514 38.9523 338.614 38.2023C339.714 37.4623 340.264 36.9523 341.194 35.9623C342.114 34.9723 342.604 34.3323 343.234 33.2623C343.864 32.1923 344.154 31.4423 344.344 30.6123C344.534 29.7823 344.334 29.3323 344.184 29.1223C344.044 28.9223 343.744 29.1123 343.604 29.6123C343.464 30.1023 343.324 30.6423 343.464 31.6023C343.614 32.5523 343.774 33.3123 344.324 34.3923C344.864 35.4723 345.364 36.1223 346.204 37.0223C347.044 37.9223 347.544 38.2923 348.524 38.9023C349.504 39.5223 350.004 39.7623 351.104 40.1023C352.204 40.4423 352.844 40.5723 354.024 40.6123C355.214 40.6623 355.844 40.5823 357.034 40.3123C358.234 40.0423 358.844 39.8223 360.004 39.2623C361.164 38.7023 361.774 38.3323 362.824 37.5223C363.874 36.7223 364.384 36.2123 365.264 35.2323C366.144 34.2623 366.544 33.6723 367.224 32.6423C367.904 31.6223 368.194 31.0523 368.674 30.1223C369.144 29.1823 369.324 28.6923 369.614 27.9823C369.894 27.2623 369.954 26.9523 370.074 26.5623C370.194 26.1823 370.134 26.0823 370.204 26.0523C370.274 26.0323 370.194 26.1423 370.424 26.4423C370.654 26.7523 370.804 27.0323 371.354 27.5723C371.904 28.1123 372.354 28.4623 373.174 29.1423C374.004 29.8223 374.574 30.2223 375.494 30.9723C376.404 31.7223 376.954 32.1723 377.754 32.8923C378.544 33.6023 378.974 33.9923 379.474 34.5623C379.974 35.1223 380.184 35.3423 380.274 35.7323C380.364 36.1123 380.284 36.2123 379.924 36.4823C379.554 36.7523 379.214 36.8423 378.434 37.0723C377.654 37.3023 377.094 37.4323 376.024 37.6323C374.944 37.8323 374.224 37.9523 373.064 38.0823C371.914 38.2123 371.244 38.2123 370.244 38.2923C369.244 38.3723 368.754 38.3823 368.054 38.4623C367.364 38.5523 367.074 38.5123 366.774 38.7023C366.474 38.8923 366.384 39.1023 366.574 39.4323C366.764 39.7523 367.014 40.0223 367.734 40.3423C368.454 40.6623 369.034 40.8923 370.154 41.0423C371.274 41.1923 372.024 41.1623 373.324 41.0723C374.634 40.9923 375.434 40.9323 376.674 40.6223C377.924 40.3223 378.594 40.1023 379.554 39.5423C380.514 38.9723 380.974 38.5923 381.494 37.8023C382.004 37.0123 382.144 36.5123 382.144 35.6023C382.144 34.6923 381.954 34.1923 381.484 33.2523C381.014 32.3223 380.574 31.8323 379.784 30.9123C378.994 29.9923 378.434 29.5123 377.514 28.6523C376.604 27.8023 376.074 27.3423 375.194 26.6423C374.314 25.9523 373.894 25.5923 373.114 25.1623C372.334 24.7323 371.964 24.5923 371.284 24.4923C370.604 24.3923 370.274 24.4723 369.714 24.6723C369.154 24.8723 368.924 25.0423 368.484 25.4923C368.044 25.9423 367.904 26.2423 367.494 26.9223C367.074 27.6023 366.904 28.0423 366.414 28.8923C365.924 29.7423 365.664 30.2523 365.034 31.1523C364.404 32.0623 364.044 32.5823 363.274 33.4223C362.504 34.2723 362.064 34.6923 361.174 35.3823C360.284 36.0723 359.774 36.3923 358.834 36.8723C357.884 37.3523 357.384 37.5423 356.444 37.7723C355.494 38.0023 355.014 38.0323 354.094 38.0223C353.164 38.0123 352.654 37.9423 351.814 37.7123C350.974 37.4823 350.564 37.3523 349.874 36.8623C349.194 36.3723 348.884 36.0523 348.374 35.2823C347.874 34.5023 347.734 33.9123 347.344 32.9823C346.954 32.0523 346.864 31.4623 346.434 30.6423C346.004 29.8323 345.774 29.3723 345.214 28.9123C344.664 28.4623 344.284 28.2523 343.664 28.3723C343.054 28.4823 342.714 28.8223 342.144 29.5123C341.574 30.1923 341.414 30.8623 340.824 31.7823C340.224 32.7023 339.914 33.2723 339.164 34.1123C338.414 34.9623 337.964 35.3823 337.094 36.0123C336.224 36.6323 335.724 36.8823 334.794 37.2323C333.864 37.5823 333.364 37.6923 332.444 37.7623C331.514 37.8323 331.044 37.8123 330.194 37.5823C329.334 37.3523 328.894 37.1623 328.174 36.6323C327.454 36.0923 327.124 35.6923 326.594 34.8923C326.064 34.0923 325.904 33.5323 325.524 32.6223C325.144 31.7123 325.014 31.1023 324.674 30.3423C324.344 29.5923 324.164 29.2823 323.834 28.8323C323.504 28.3923 323.394 28.2223 323.044 28.1123C322.694 28.0123 322.364 28.0723 322.084 28.3123Z" fill="black" stroke="black"/>
<path d="M412.116 34.9624C412.446 35.2924 412.856 35.4025 413.756 35.5725C414.666 35.7525 415.266 35.8225 416.646 35.8525C418.036 35.8825 418.976 35.8124 420.686 35.7424C422.396 35.6724 423.396 35.5824 425.216 35.4924C427.026 35.4124 428.016 35.3625 429.766 35.2925C431.516 35.2325 432.396 35.2725 433.966 35.1625C435.536 35.0425 436.886 35.0224 437.626 34.7124C438.366 34.3924 438.406 33.9625 437.686 33.5625C436.966 33.1725 435.616 32.9424 434.026 32.7424C432.436 32.5524 431.516 32.6125 429.746 32.5725C427.966 32.5425 426.976 32.5725 425.146 32.5725C423.306 32.5725 422.306 32.5325 420.576 32.5725C418.856 32.6225 417.906 32.6525 416.526 32.7925C415.156 32.9325 414.576 33.0525 413.696 33.2825C412.806 33.5025 412.426 33.5925 412.106 33.9225C411.796 34.2625 411.786 34.6324 412.116 34.9624Z" fill="black" stroke="black"/>
<path d="M815.245 3.40776C815.575 3.73776 815.985 3.84778 816.885 4.01778C817.795 4.19778 818.395 4.26778 819.775 4.29778C821.165 4.32778 822.105 4.25776 823.815 4.18776C825.525 4.11776 826.525 4.02776 828.345 3.93776C830.155 3.85776 831.145 3.80778 832.895 3.73778C834.645 3.67778 835.525 3.71777 837.095 3.60777C838.665 3.48777 840.015 3.46776 840.755 3.15776C841.495 2.83776 841.535 2.40777 840.815 2.00777C840.095 1.61777 838.745 1.38776 837.155 1.18776C835.565 0.997761 834.645 1.05778 832.875 1.01778C831.095 0.987778 830.105 1.01778 828.275 1.01778C826.435 1.01778 825.435 0.977778 823.705 1.01778C821.985 1.06778 821.035 1.09778 819.655 1.23778C818.285 1.37778 817.705 1.49777 816.825 1.72777C815.935 1.94777 815.555 2.03778 815.235 2.36778C814.925 2.70778 814.915 3.07776 815.245 3.40776Z" fill="black" stroke="black"/>
<path d="M513.605 10.2732C513.615 9.83315 513.465 9.38316 512.925 8.87316C512.375 8.36316 511.915 8.00315 510.895 7.74315C509.865 7.49315 509.145 7.36318 507.815 7.61318C506.485 7.86318 505.745 8.14317 504.255 9.01317C502.765 9.88317 501.895 10.5032 500.355 11.9632C498.815 13.4232 497.915 14.3732 496.555 16.3032C495.185 18.2332 494.425 19.4332 493.525 21.5932C492.615 23.7632 492.225 25.0032 492.025 27.1132C491.815 29.2232 491.885 30.3132 492.485 32.1232C493.085 33.9332 493.645 34.8332 494.995 36.1732C496.355 37.5232 497.335 38.1032 499.265 38.8532C501.205 39.6032 502.405 39.8032 504.665 39.9432C506.925 40.0832 508.225 39.9832 510.555 39.5532C512.885 39.1232 514.155 38.7432 516.305 37.8032C518.455 36.8532 519.555 36.2032 521.305 34.8232C523.065 33.4332 523.905 32.5832 525.075 30.8732C526.245 29.1632 526.715 28.1332 527.145 26.2732C527.575 24.4232 527.585 23.3632 527.225 21.5832C526.865 19.7932 526.435 18.8432 525.335 17.3532C524.235 15.8632 523.395 15.1432 521.725 14.1232C520.055 13.1032 518.935 12.7032 516.975 12.2432C515.015 11.7832 513.815 11.7232 511.915 11.8232C510.025 11.9132 508.965 12.1832 507.495 12.7132C506.035 13.2432 505.395 13.7832 504.585 14.4832C503.785 15.1832 503.575 15.7432 503.455 16.2032C503.335 16.6632 503.565 16.8132 503.985 16.7832C504.405 16.7532 504.705 16.3732 505.555 16.0432C506.405 15.7132 506.935 15.4432 508.225 15.1432C509.525 14.8332 510.395 14.5832 512.025 14.5432C513.655 14.5032 514.685 14.5532 516.355 14.9232C518.035 15.2932 518.985 15.6132 520.395 16.3932C521.795 17.1832 522.485 17.7132 523.385 18.8432C524.295 19.9732 524.635 20.6832 524.925 22.0532C525.215 23.4332 525.205 24.2432 524.835 25.7232C524.455 27.2032 524.075 28.0432 523.055 29.4532C522.035 30.8632 521.295 31.6032 519.735 32.7832C518.175 33.9532 517.175 34.5232 515.245 35.3332C513.315 36.1432 512.145 36.4632 510.065 36.8332C507.975 37.2132 506.795 37.2832 504.805 37.2032C502.825 37.1232 501.795 36.9732 500.145 36.4232C498.505 35.8832 497.705 35.4832 496.605 34.4832C495.505 33.4932 495.055 32.8632 494.635 31.4432C494.215 30.0332 494.205 29.1732 494.485 27.4332C494.775 25.6932 495.175 24.6132 496.075 22.7332C496.965 20.8632 497.695 19.7732 498.965 18.0532C500.245 16.3332 501.075 15.4532 502.435 14.1332C503.795 12.8132 504.565 12.2232 505.745 11.4532C506.935 10.6832 507.445 10.5032 508.355 10.3032C509.275 10.1032 509.635 10.3332 510.305 10.4432C510.975 10.5632 511.205 10.7432 511.715 10.8732C512.225 11.0032 512.495 11.2232 512.875 11.1032C513.255 10.9832 513.595 10.7232 513.605 10.2732Z" fill="black" stroke="black"/>
<path d="M535.293 25.894C535.053 26.264 535.004 26.574 535.024 27.504C535.044 28.434 535.094 29.084 535.384 30.534C535.674 31.984 535.983 32.944 536.493 34.764C537.013 36.584 537.384 37.684 537.974 39.624C538.564 41.564 538.924 42.644 539.464 44.474C540.014 46.294 540.274 47.224 540.694 48.754C541.104 50.284 541.263 51.024 541.553 52.114C541.833 53.194 541.903 53.554 542.123 54.164C542.343 54.774 542.464 54.924 542.644 55.174C542.814 55.424 542.853 55.384 542.993 55.434C543.123 55.484 543.184 55.504 543.324 55.434C543.464 55.364 543.553 55.394 543.673 55.084C543.803 54.774 543.924 54.564 543.944 53.884C543.954 53.204 543.914 52.814 543.764 51.674C543.614 50.534 543.503 49.744 543.183 48.164C542.853 46.574 542.594 45.6139 542.134 43.7439C541.674 41.8739 541.363 40.784 540.863 38.814C540.353 36.844 540.103 35.714 539.603 33.894C539.113 32.074 538.864 31.114 538.384 29.714C537.904 28.324 537.644 27.754 537.214 26.934C536.784 26.124 536.613 25.864 536.233 25.664C535.843 25.454 535.533 25.524 535.293 25.894Z" fill="black" stroke="black"/>
<path d="M530.444 30.8823C530.864 30.6423 530.954 30.0822 531.444 29.4022C531.944 28.7222 532.134 28.2722 532.934 27.4922C533.724 26.7122 534.184 26.1423 535.434 25.5023C536.684 24.8723 537.554 24.6323 539.184 24.3223C540.824 24.0023 541.844 23.9223 543.604 23.9423C545.354 23.9623 546.344 24.0923 547.954 24.4223C549.564 24.7623 550.424 25.0723 551.654 25.6023C552.884 26.1423 553.434 26.5223 554.124 27.1123C554.814 27.6923 555.024 28.0023 555.124 28.5423C555.224 29.0823 555.114 29.3123 554.614 29.8223C554.124 30.3423 553.664 30.5823 552.654 31.1023C551.644 31.6223 550.914 31.9123 549.554 32.4123C548.184 32.9123 547.304 33.1923 545.824 33.5823C544.354 33.9723 543.474 34.1222 542.184 34.3722C540.894 34.6122 540.234 34.6623 539.384 34.7923C538.534 34.9123 538.334 34.9523 537.924 35.0023C537.524 35.0523 537.534 34.9623 537.364 35.0423C537.194 35.1223 537.054 35.1723 537.084 35.4123C537.114 35.6423 537.084 35.8822 537.534 36.2122C537.974 36.5422 538.324 36.8822 539.324 37.0622C540.324 37.2322 541.104 37.2122 542.544 37.0922C543.984 36.9722 544.924 36.8322 546.534 36.4622C548.154 36.0922 549.114 35.8523 550.634 35.2523C552.154 34.6523 552.984 34.3023 554.134 33.4523C555.284 32.6123 555.834 32.0723 556.394 31.0323C556.954 30.0023 557.074 29.3622 556.924 28.2722C556.784 27.1922 556.504 26.5923 555.664 25.6123C554.834 24.6223 554.174 24.1223 552.754 23.3523C551.334 22.5923 550.374 22.2423 548.554 21.7923C546.734 21.3523 545.644 21.2023 543.664 21.1323C541.684 21.0723 540.574 21.1123 538.654 21.4723C536.734 21.8223 535.644 22.0723 534.084 22.8923C532.524 23.7023 531.794 24.4522 530.844 25.5522C529.894 26.6522 529.614 27.3922 529.324 28.4022C529.024 29.4122 529.134 30.1022 529.354 30.5922C529.584 31.0922 530.024 31.1223 530.444 30.8823Z" fill="black" stroke="black"/>
<path d="M565.927 31.3329C566.357 31.5629 566.817 31.5829 567.707 31.4829C568.597 31.3829 569.227 31.2329 570.377 30.8329C571.527 30.4329 572.297 30.1128 573.457 29.4728C574.617 28.8328 575.237 28.4029 576.197 27.6329C577.157 26.8729 577.647 26.4629 578.277 25.6329C578.907 24.7929 579.177 24.3229 579.327 23.4529C579.477 22.5829 579.427 22.0528 579.017 21.2728C578.607 20.4928 578.207 20.0529 577.277 19.5729C576.357 19.1029 575.657 18.9229 574.387 18.8929C573.107 18.8729 572.287 19.0129 570.907 19.4529C569.537 19.8929 568.707 20.2729 567.497 21.1029C566.287 21.9329 565.637 22.5128 564.857 23.6228C564.087 24.7328 563.767 25.4329 563.627 26.6329C563.487 27.8229 563.587 28.5128 564.147 29.5928C564.717 30.6828 565.247 31.2429 566.447 32.0429C567.657 32.8329 568.497 33.1429 570.167 33.5729C571.827 34.0129 572.857 34.1129 574.787 34.2029C576.717 34.2929 577.837 34.2428 579.807 34.0328C581.777 33.8328 582.817 33.6228 584.627 33.1828C586.437 32.7428 587.337 32.4429 588.857 31.8329C590.367 31.2129 591.097 30.8328 592.207 30.0928C593.317 29.3628 593.807 28.8429 594.387 28.1629C594.967 27.4729 595.057 27.0228 595.107 26.6528C595.167 26.2928 594.867 26.1628 594.657 26.3428C594.437 26.5228 594.117 26.8528 594.027 27.5528C593.927 28.2528 593.937 28.9129 594.177 29.8329C594.417 30.7529 594.727 31.4028 595.237 32.1528C595.747 32.9028 596.137 33.3029 596.727 33.6029C597.317 33.9129 597.707 33.9029 598.177 33.6729C598.647 33.4529 598.887 33.1428 599.067 32.5028C599.247 31.8528 599.237 31.3428 599.077 30.4428C598.917 29.5328 598.617 28.9528 598.277 27.9728C597.947 26.9928 597.657 26.4329 597.387 25.5429C597.117 24.6529 596.957 24.2029 596.907 23.5129C596.857 22.8329 596.847 22.5629 597.127 22.1129C597.397 21.6629 597.617 21.5429 598.277 21.2629C598.937 20.9729 599.377 20.8828 600.437 20.6928C601.487 20.5128 602.157 20.4329 603.557 20.3329C604.957 20.2429 605.807 20.2328 607.427 20.2228C609.037 20.2228 609.957 20.2428 611.637 20.3028C613.317 20.3728 614.217 20.4229 615.837 20.5429C617.467 20.6729 618.297 20.7729 619.767 20.9229C621.227 21.0729 621.957 21.1728 623.157 21.3028C624.357 21.4328 624.927 21.5528 625.787 21.5628C626.647 21.5828 627.017 21.5928 627.447 21.3728C627.887 21.1528 628.017 20.8529 627.937 20.4529C627.867 20.0429 627.687 19.6629 627.087 19.3529C626.477 19.0329 625.957 18.8628 624.917 18.8728C623.887 18.8728 623.177 19.0129 621.927 19.3629C620.687 19.7129 619.917 19.9828 618.697 20.6228C617.477 21.2628 616.787 21.6929 615.827 22.5729C614.867 23.4529 614.407 23.9928 613.907 25.0028C613.407 26.0128 613.267 26.6328 613.337 27.6228C613.397 28.6128 613.617 29.1728 614.237 29.9728C614.847 30.7728 615.377 31.1628 616.407 31.6228C617.427 32.0828 618.127 32.2028 619.367 32.2728C620.607 32.3328 621.327 32.2329 622.617 31.9529C623.897 31.6729 624.607 31.4129 625.797 30.8629C626.997 30.3029 627.597 29.9229 628.587 29.1729C629.577 28.4229 630.097 27.9429 630.767 27.1129C631.427 26.2829 631.717 25.6629 631.907 25.0129C632.097 24.3629 631.887 23.9928 631.737 23.8728C631.577 23.7528 631.237 23.9128 631.137 24.4128C631.037 24.9028 630.967 25.4528 631.237 26.3428C631.497 27.2228 631.787 27.9029 632.477 28.8529C633.167 29.8029 633.707 30.3329 634.677 31.1029C635.637 31.8729 636.217 32.2128 637.317 32.6928C638.417 33.1728 639.007 33.3328 640.157 33.5028C641.317 33.6728 642.027 33.7928 643.097 33.5228C644.167 33.2528 645.107 32.6529 645.507 32.1329C645.917 31.6129 645.687 31.1329 645.127 30.9129C644.577 30.6929 643.657 31.0128 642.737 31.0328C641.817 31.0428 641.397 31.1328 640.537 30.9928C639.667 30.8628 639.197 30.7529 638.407 30.3529C637.607 29.9529 637.187 29.6628 636.547 28.9928C635.907 28.3328 635.687 27.8328 635.207 27.0328C634.717 26.2328 634.607 25.6829 634.137 24.9829C633.657 24.2829 633.387 23.9229 632.837 23.5429C632.297 23.1629 631.977 23.0429 631.407 23.0829C630.847 23.1329 630.557 23.3229 630.027 23.7929C629.497 24.2529 629.367 24.7528 628.767 25.4028C628.157 26.0628 627.837 26.4628 627.017 27.0528C626.197 27.6428 625.677 27.9329 624.677 28.3629C623.677 28.7829 623.067 28.9728 622.027 29.1828C620.977 29.4028 620.407 29.4428 619.467 29.4328C618.517 29.4328 618.027 29.3328 617.307 29.1528C616.587 28.9728 616.237 28.8428 615.847 28.5228C615.457 28.2028 615.327 28.0228 615.347 27.5528C615.357 27.0828 615.477 26.7728 615.917 26.1928C616.357 25.6128 616.727 25.2428 617.547 24.6628C618.357 24.0828 618.937 23.7428 619.977 23.3028C621.007 22.8628 621.667 22.7029 622.707 22.4829C623.747 22.2629 624.317 22.3628 625.167 22.2228C626.027 22.0828 626.437 22.0629 626.977 21.7929C627.517 21.5329 627.727 21.2629 627.867 20.8929C627.997 20.5229 627.987 20.2729 627.627 19.9529C627.277 19.6229 626.937 19.5128 626.107 19.2828C625.277 19.0628 624.687 19.0228 623.477 18.8428C622.277 18.6528 621.547 18.5428 620.067 18.3428C618.587 18.1528 617.727 18.0328 616.077 17.8728C614.417 17.7028 613.507 17.6329 611.777 17.5129C610.057 17.4029 609.127 17.3428 607.437 17.3128C605.747 17.2928 604.857 17.2629 603.327 17.3929C601.797 17.5329 601.037 17.6328 599.797 17.9928C598.547 18.3528 597.997 18.5928 597.097 19.1928C596.207 19.8028 595.827 20.1729 595.317 21.0129C594.807 21.8529 594.677 22.3729 594.537 23.3829C594.387 24.3929 594.477 24.9829 594.577 26.0829C594.687 27.1829 594.817 27.8229 595.067 28.8929C595.307 29.9629 595.457 30.6029 595.817 31.4229C596.187 32.2429 596.477 32.6128 596.887 32.9928C597.297 33.3728 597.587 33.4128 597.897 33.3128C598.197 33.2228 598.327 33.0228 598.407 32.5328C598.487 32.0428 598.427 31.6329 598.287 30.8629C598.157 30.0929 598.057 29.5028 597.747 28.6928C597.437 27.8828 597.187 27.3928 596.737 26.8028C596.277 26.2128 595.987 25.9829 595.477 25.7629C594.977 25.5329 594.727 25.5029 594.207 25.6629C593.687 25.8229 593.527 26.0629 592.867 26.5429C592.207 27.0229 591.907 27.4828 590.927 28.0628C589.937 28.6528 589.327 28.9829 587.947 29.4829C586.567 29.9829 585.717 30.2228 584.037 30.5628C582.357 30.9128 581.367 31.0728 579.547 31.2128C577.727 31.3428 576.677 31.3529 574.927 31.2629C573.187 31.1729 572.267 31.0428 570.827 30.7528C569.387 30.4628 568.697 30.2429 567.737 29.7929C566.767 29.3529 566.387 29.0828 565.987 28.5228C565.587 27.9528 565.567 27.6528 565.737 26.9928C565.907 26.3228 566.197 25.9128 566.857 25.2128C567.517 24.5228 568.047 24.0929 569.047 23.5129C570.037 22.9429 570.737 22.6729 571.817 22.3329C572.907 21.9929 573.547 21.9228 574.467 21.8428C575.387 21.7528 575.827 21.8128 576.427 21.9028C577.017 21.9828 577.227 22.0528 577.437 22.2728C577.647 22.4828 577.657 22.6029 577.477 22.9529C577.297 23.3129 577.097 23.5628 576.527 24.0528C575.957 24.5428 575.537 24.8729 574.637 25.3929C573.737 25.9229 573.137 26.1928 572.047 26.6928C570.957 27.2028 570.217 27.4328 569.177 27.9328C568.147 28.4328 567.597 28.7128 566.887 29.1928C566.167 29.6728 565.797 29.8929 565.607 30.3229C565.417 30.7529 565.507 31.1029 565.927 31.3329Z" fill="black" stroke="black"/>
<path d="M650.866 5.94311C650.586 6.22311 650.456 6.43312 650.356 7.26312C650.256 8.10312 650.196 8.73313 650.386 10.1131C650.566 11.5031 650.836 12.4631 651.286 14.1731C651.736 15.8931 652.076 16.9331 652.646 18.6931C653.206 20.4431 653.546 21.3731 654.116 22.9431C654.676 24.5131 654.976 25.2431 655.446 26.5431C655.926 27.8531 656.106 28.4531 656.476 29.4531C656.836 30.4631 656.996 30.9831 657.256 31.5731C657.526 32.1631 657.616 32.2331 657.806 32.4131C658.006 32.6031 658.136 32.5131 658.236 32.4931C658.326 32.4631 658.356 32.2231 658.296 32.2831C658.236 32.3531 657.906 32.6731 657.936 32.8031C657.956 32.9231 658.216 33.0031 658.436 32.9131C658.666 32.8231 658.906 32.7231 659.066 32.3531C659.236 31.9831 659.336 31.7931 659.266 31.0631C659.206 30.3431 659.046 29.7931 658.746 28.7331C658.446 27.6631 658.186 27.0731 657.776 25.7531C657.356 24.4331 657.096 23.7031 656.656 22.1331C656.206 20.5531 655.956 19.6231 655.526 17.8731C655.096 16.1231 654.916 15.0531 654.506 13.3631C654.106 11.6731 653.896 10.7331 653.506 9.44311C653.106 8.15311 652.886 7.63311 652.546 6.91311C652.196 6.19311 652.106 6.03311 651.776 5.84311C651.436 5.64311 651.146 5.65311 650.866 5.94311Z" fill="black" stroke="black"/>
<path d="M645.965 24.812C646.335 24.972 646.555 24.842 647.345 24.752C648.135 24.662 648.625 24.562 649.905 24.352C651.185 24.142 652.025 23.9521 653.745 23.7021C655.455 23.4421 656.555 23.302 658.465 23.092C660.375 22.872 661.475 22.762 663.295 22.622C665.125 22.472 666.045 22.392 667.595 22.352C669.155 22.302 669.895 22.302 671.065 22.402C672.245 22.502 672.695 22.5321 673.475 22.8621C674.265 23.1821 674.465 23.422 674.985 24.032C675.495 24.642 675.655 25.102 676.055 25.912C676.455 26.722 676.625 27.222 676.995 28.092C677.375 28.952 677.535 29.472 677.925 30.242C678.325 31.012 678.535 31.4521 678.955 31.9521C679.375 32.4521 679.675 32.5621 680.035 32.7321C680.395 32.9021 680.545 32.872 680.765 32.802C680.975 32.742 681.025 32.602 681.095 32.412C681.175 32.232 681.145 32.202 681.135 31.882C681.115 31.572 681.165 31.3721 681.005 30.8321C680.855 30.2821 680.675 29.9121 680.365 29.1421C680.065 28.3721 679.915 27.8821 679.505 26.9821C679.085 26.0721 678.885 25.5221 678.305 24.6121C677.725 23.7121 677.385 23.202 676.585 22.472C675.785 21.732 675.355 21.412 674.305 20.942C673.265 20.472 672.705 20.352 671.365 20.132C670.025 19.902 669.255 19.872 667.605 19.812C665.965 19.762 665.035 19.802 663.155 19.852C661.265 19.902 660.175 19.932 658.195 20.072C656.225 20.202 655.075 20.2421 653.275 20.5121C651.465 20.7721 650.535 20.952 649.175 21.382C647.825 21.822 647.255 22.1521 646.515 22.6721C645.775 23.1821 645.595 23.5221 645.485 23.9521C645.375 24.3821 645.595 24.652 645.965 24.812Z" fill="black" stroke="black"/>
<path d="M673.766 10.0122C674.026 10.2022 673.966 10.5723 673.906 10.6723C673.846 10.7723 673.606 10.8422 673.476 10.5122C673.346 10.1722 673.446 9.31223 673.256 8.99223C673.066 8.66223 672.666 8.72226 672.536 8.86226C672.416 9.01226 672.376 9.50225 672.626 9.73225C672.866 9.96225 673.516 9.83225 673.766 10.0122Z" fill="black" stroke="black"/>
<path d="M701.866 22.6524C701.846 22.2424 701.716 21.9124 701.226 21.4924C700.726 21.0624 700.306 20.7425 699.386 20.5125C698.466 20.2925 697.786 20.2025 696.626 20.3625C695.456 20.5225 694.736 20.7424 693.556 21.3224C692.386 21.9024 691.676 22.3325 690.736 23.2625C689.806 24.1925 689.306 24.8224 688.876 25.9724C688.446 27.1224 688.346 27.8724 688.596 29.0224C688.836 30.1824 689.186 30.8225 690.096 31.7325C691.016 32.6525 691.736 33.0624 693.156 33.6024C694.576 34.1424 695.516 34.3024 697.206 34.4424C698.896 34.5724 699.906 34.5124 701.606 34.2824C703.306 34.0524 704.226 33.8424 705.706 33.3024C707.186 32.7624 707.916 32.4025 708.996 31.5825C710.076 30.7625 710.556 30.2324 711.116 29.1824C711.666 28.1324 711.806 27.4724 711.766 26.3424C711.726 25.2124 711.486 24.5324 710.896 23.5224C710.316 22.5124 709.766 21.9924 708.836 21.2924C707.906 20.6024 707.236 20.3224 706.256 20.0324C705.276 19.7524 704.686 19.7725 703.946 19.8625C703.196 19.9525 702.886 20.2124 702.516 20.4924C702.156 20.7824 702.126 21.0324 702.116 21.2824C702.106 21.5324 702.316 21.6225 702.476 21.7325C702.636 21.8525 702.666 21.7524 702.936 21.8424C703.206 21.9324 703.346 22.0324 703.836 22.1824C704.326 22.3324 704.716 22.3224 705.396 22.5924C706.066 22.8724 706.536 23.0824 707.216 23.5424C707.896 24.0124 708.316 24.3225 708.796 24.9225C709.266 25.5125 709.496 25.8624 709.586 26.5024C709.676 27.1524 709.636 27.5125 709.246 28.1425C708.866 28.7625 708.526 29.1125 707.656 29.6425C706.776 30.1825 706.166 30.4424 704.886 30.8024C703.616 31.1624 702.776 31.3024 701.276 31.4424C699.786 31.5724 698.876 31.5824 697.426 31.4924C695.976 31.3924 695.186 31.2524 694.036 30.9424C692.876 30.6324 692.336 30.4124 691.666 29.9424C690.996 29.4724 690.796 29.1824 690.676 28.5924C690.566 28.0024 690.696 27.6225 691.086 26.9825C691.466 26.3325 691.876 25.9424 692.626 25.3424C693.376 24.7524 693.956 24.3924 694.836 23.9924C695.716 23.5924 696.236 23.4525 697.046 23.3325C697.846 23.2225 698.226 23.3524 698.866 23.4124C699.506 23.4624 699.766 23.5824 700.246 23.6024C700.726 23.6324 700.966 23.7224 701.286 23.5324C701.616 23.3424 701.876 23.0624 701.866 22.6524Z" fill="black" stroke="black"/>
<path d="M719.395 21.4029C719.065 21.6229 718.905 21.8729 718.725 22.5129C718.535 23.1629 718.425 23.6529 718.465 24.6229C718.505 25.5929 718.615 26.3029 718.915 27.3629C719.205 28.4229 719.455 29.0329 719.935 29.9329C720.415 30.8429 720.685 31.3029 721.325 31.8929C721.955 32.4829 722.345 32.7129 723.105 32.9029C723.865 33.0829 724.305 33.0529 725.115 32.8129C725.925 32.5629 726.335 32.3029 727.155 31.6629C727.985 31.0329 728.385 30.5329 729.245 29.6429C730.095 28.7529 730.545 28.1329 731.435 27.2229C732.315 26.3129 732.795 25.7829 733.675 25.0929C734.555 24.3929 735.025 24.0729 735.835 23.7329C736.645 23.3929 737.035 23.3229 737.725 23.3729C738.425 23.4229 738.695 23.5729 739.305 23.9929C739.905 24.4129 740.155 24.7529 740.755 25.4529C741.355 26.1529 741.675 26.6329 742.315 27.4829C742.965 28.3429 743.275 28.8529 743.985 29.7429C744.695 30.6329 745.065 31.1129 745.855 31.9329C746.645 32.7629 747.065 33.1829 747.935 33.8629C748.805 34.5429 749.325 34.8829 750.205 35.3229C751.095 35.7729 751.605 35.9629 752.365 36.1029C753.125 36.2529 753.635 36.2329 754.035 36.0429C754.425 35.8529 754.505 35.5329 754.335 35.1529C754.175 34.7729 753.775 34.5529 753.205 34.1229C752.635 33.7029 752.225 33.5029 751.495 33.0329C750.755 32.5729 750.265 32.3929 749.525 31.8229C748.775 31.2429 748.435 30.9029 747.765 30.1629C747.085 29.4129 746.795 28.9629 746.145 28.0829C745.495 27.2129 745.235 26.6829 744.535 25.7829C743.835 24.8929 743.465 24.3729 742.655 23.6129C741.835 22.8529 741.415 22.4729 740.465 21.9929C739.525 21.5029 739.005 21.2829 737.925 21.1729C736.835 21.0729 736.205 21.1329 735.045 21.4629C733.885 21.8029 733.265 22.1529 732.125 22.8629C730.985 23.5829 730.375 24.1129 729.345 25.0429C728.305 25.9729 727.775 26.5929 726.945 27.5029C726.125 28.4129 725.765 28.9229 725.205 29.5929C724.645 30.2629 724.485 30.5429 724.155 30.8629C723.825 31.1729 723.765 31.2429 723.545 31.1729C723.325 31.1029 723.235 30.9729 723.035 30.5229C722.835 30.0629 722.715 29.6929 722.525 28.9129C722.345 28.1329 722.285 27.5629 722.115 26.6229C721.945 25.6729 721.885 25.0329 721.675 24.1829C721.465 23.3429 721.315 22.9329 721.065 22.3829C720.805 21.8229 720.735 21.6029 720.395 21.4129C720.065 21.2129 719.735 21.1829 719.395 21.4029Z" fill="black" stroke="black"/>
<path d="M808.694 3.12269C808.354 3.32269 808.224 3.51268 807.944 4.24268C807.674 4.96268 807.504 5.44269 807.324 6.75269C807.144 8.06269 807.104 8.9927 807.054 10.7927C807.004 12.5927 807.024 13.7327 807.054 15.7627C807.094 17.7827 807.094 18.9327 807.234 20.9127C807.374 22.8827 807.444 23.8727 807.754 25.6527C808.064 27.4227 808.264 28.2527 808.784 29.7827C809.304 31.3127 809.614 32.0127 810.354 33.2827C811.094 34.5527 811.524 35.1127 812.484 36.1327C813.434 37.1427 813.994 37.6027 815.134 38.3427C816.274 39.0927 816.894 39.3927 818.174 39.8627C819.444 40.3327 820.124 40.4827 821.484 40.6827C822.844 40.8927 823.574 40.9227 824.974 40.8927C826.374 40.8727 827.104 40.7727 828.484 40.5727C829.864 40.3827 830.574 40.2227 831.884 39.9127C833.204 39.6027 833.884 39.4127 835.074 39.0427C836.264 38.6727 836.844 38.4627 837.844 38.0627C838.844 37.6627 839.314 37.4527 840.074 37.0427C840.844 36.6427 841.174 36.4327 841.684 36.0427C842.184 35.6627 842.354 35.4627 842.604 35.1027C842.854 34.7427 842.974 34.5227 842.924 34.2327C842.884 33.9327 842.664 33.7227 842.384 33.6327C842.114 33.5427 841.934 33.6627 841.574 33.7827C841.204 33.9027 841.054 33.9827 840.554 34.2127C840.054 34.4427 839.784 34.6227 839.074 34.9227C838.354 35.2227 837.924 35.4027 836.974 35.7227C836.024 36.0527 835.464 36.2227 834.334 36.5427C833.194 36.8627 832.544 37.0427 831.294 37.3227C830.054 37.5927 829.374 37.7527 828.104 37.9327C826.824 38.1227 826.174 38.2127 824.924 38.2527C823.674 38.2827 823.034 38.2727 821.854 38.1127C820.674 37.9627 820.094 37.8527 819.024 37.4827C817.954 37.1027 817.444 36.8627 816.484 36.2527C815.524 35.6427 815.044 35.2827 814.224 34.4527C813.414 33.6227 813.034 33.1727 812.394 32.0927C811.764 31.0027 811.494 30.4027 811.064 29.0327C810.634 27.6727 810.464 26.9127 810.254 25.2627C810.044 23.6227 810.034 22.6927 810.004 20.7927C809.984 18.8927 810.064 17.7627 810.134 15.7827C810.194 13.8027 810.284 12.6627 810.344 10.8927C810.394 9.1127 810.444 8.20269 810.404 6.91269C810.354 5.61269 810.254 5.15269 810.104 4.41269C809.944 3.68269 809.904 3.4927 809.624 3.2327C809.334 2.9727 809.024 2.92269 808.694 3.12269Z" fill="black" stroke="black"/>
<path d="M811.094 19.9925C811.394 20.2625 811.624 20.2525 812.374 20.3825C813.124 20.5125 813.594 20.6125 814.854 20.6525C816.114 20.6925 816.964 20.6425 818.664 20.5825C820.364 20.5225 821.464 20.4625 823.354 20.3525C825.234 20.2325 826.314 20.1625 828.094 20.0025C829.874 19.8425 830.794 19.7725 832.254 19.5525C833.714 19.3325 834.784 19.2325 835.414 18.9025C836.044 18.5625 836.044 18.2025 835.404 17.8725C834.754 17.5525 833.674 17.4125 832.194 17.2725C830.704 17.1325 829.764 17.1925 827.974 17.1925C826.184 17.1925 825.114 17.2525 823.234 17.2825C821.344 17.3125 820.254 17.2725 818.544 17.3425C816.834 17.4125 815.984 17.4525 814.704 17.6225C813.424 17.7925 812.914 17.8925 812.154 18.1725C811.404 18.4625 811.134 18.6625 810.924 19.0225C810.704 19.3925 810.804 19.7225 811.094 19.9925Z" fill="black" stroke="black"/>
<path d="M814.987 19.8031C815.327 20.0331 815.587 19.9932 816.427 20.0332C817.277 20.0632 817.827 20.0632 819.217 19.9832C820.607 19.9032 821.517 19.7832 823.367 19.6532C825.207 19.5332 826.377 19.4532 828.457 19.3532C830.547 19.2432 831.707 19.1732 833.777 19.1232C835.857 19.0732 836.927 19.0732 838.827 19.0932C840.727 19.1232 841.737 19.2132 843.277 19.2532C844.827 19.2932 845.487 19.3231 846.527 19.3031C847.567 19.2731 848.057 19.3032 848.477 19.1132C848.897 18.9232 848.947 18.6832 848.617 18.3532C848.277 18.0332 847.817 17.8131 846.787 17.4931C845.767 17.1631 845.067 16.9531 843.487 16.7431C841.907 16.5231 840.837 16.5032 838.897 16.4232C836.947 16.3432 835.867 16.3532 833.757 16.3432C831.657 16.3232 830.487 16.3132 828.367 16.3432C826.247 16.3632 825.057 16.3332 823.147 16.4532C821.247 16.5732 820.267 16.6632 818.837 16.9432C817.397 17.2232 816.797 17.4632 815.977 17.8432C815.147 18.2332 814.907 18.4832 814.707 18.8732C814.517 19.2632 814.637 19.5731 814.987 19.8031Z" fill="black" stroke="black"/>
<path d="M866.324 21.0136C866.094 20.6736 865.784 20.4736 865.094 20.3436C864.404 20.2236 863.874 20.1336 862.854 20.3936C861.844 20.6436 861.124 20.8836 860.004 21.6236C858.874 22.3636 858.224 22.9336 857.244 24.0836C856.254 25.2336 855.694 25.9936 855.074 27.3936C854.454 28.7936 854.174 29.6536 854.124 31.1036C854.084 32.5536 854.214 33.3636 854.844 34.6436C855.474 35.9136 856.014 36.5636 857.274 37.4836C858.544 38.4136 859.424 38.7836 861.184 39.2636C862.944 39.7536 864.014 39.8736 866.064 39.9036C868.114 39.9336 869.294 39.8236 871.424 39.4136C873.554 39.0136 874.724 38.6936 876.724 37.8936C878.724 37.0836 879.724 36.5936 881.434 35.3936C883.134 34.1936 883.964 33.4736 885.264 31.8936C886.574 30.3136 887.144 29.3836 887.954 27.4936C888.774 25.6136 889.034 24.5136 889.344 22.4736C889.644 20.4436 889.634 19.2936 889.474 17.3236C889.314 15.3636 889.064 14.3136 888.544 12.6536C888.014 10.9936 887.614 10.1736 886.864 9.00357C886.114 7.84357 885.664 7.34357 884.784 6.82357C883.904 6.31357 883.244 6.15356 882.444 6.43356C881.654 6.71356 881.234 7.15357 880.794 8.22357C880.364 9.28357 880.234 10.0836 880.284 11.7436C880.334 13.4036 880.544 14.5136 881.034 16.5036C881.514 18.4936 881.954 19.6736 882.704 21.6836C883.464 23.6836 883.944 24.7536 884.804 26.5336C885.664 28.3036 886.144 29.1336 887.014 30.5536C887.894 31.9836 888.324 32.6136 889.164 33.6636C889.994 34.7136 890.364 35.1736 891.174 35.8036C891.984 36.4336 892.394 36.6536 893.204 36.7936C894.024 36.9336 894.474 36.8636 895.254 36.5036C896.034 36.1436 896.424 35.7736 897.104 34.9936C897.784 34.2036 898.074 33.5836 898.644 32.5636C899.204 31.5436 899.454 30.8336 899.934 29.8736C900.404 28.9136 900.624 28.3936 901.014 27.7636C901.394 27.1436 901.544 26.8936 901.864 26.7536C902.174 26.6036 902.224 26.7136 902.594 27.0536C902.964 27.4036 903.144 27.8036 903.704 28.4936C904.254 29.1836 904.624 29.6736 905.374 30.5136C906.124 31.3536 906.564 31.8436 907.464 32.6936C908.374 33.5336 908.884 34.0036 909.904 34.7336C910.924 35.4736 911.464 35.8236 912.564 36.3736C913.664 36.9136 914.254 37.1536 915.424 37.4636C916.584 37.7736 917.214 37.8736 918.404 37.9236C919.594 37.9836 920.204 37.9436 921.364 37.7236C922.514 37.5036 923.124 37.3136 924.184 36.8436C925.254 36.3736 925.774 36.0536 926.684 35.3736C927.604 34.6936 928.034 34.2636 928.744 33.4336C929.454 32.5936 929.784 32.0836 930.234 31.2036C930.674 30.3136 930.844 29.8336 930.964 29.0136C931.094 28.2036 931.094 27.7836 930.864 27.1436C930.634 26.5036 930.384 26.1436 929.814 25.8336C929.254 25.5136 928.754 25.4136 928.044 25.5736C927.334 25.7336 926.864 25.9936 926.274 26.6436C925.684 27.2936 925.374 27.8236 925.104 28.8236C924.834 29.8236 924.764 30.5136 924.934 31.6436C925.104 32.7736 925.314 33.4436 925.974 34.4836C926.624 35.5236 927.134 36.0636 928.204 36.8336C929.284 37.6036 930.004 37.9336 931.374 38.3536C932.744 38.7636 933.584 38.8636 935.064 38.9236C936.544 38.9836 937.374 38.9036 938.774 38.6336C940.184 38.3636 940.914 38.1536 942.084 37.5836C943.254 37.0136 943.844 36.6436 944.624 35.8036C945.404 34.9536 945.734 34.4136 945.974 33.3536C946.224 32.2836 946.224 31.6136 945.854 30.4936C945.494 29.3836 945.104 28.7236 944.154 27.7736C943.204 26.8236 942.474 26.3536 941.084 25.7336C939.704 25.1136 938.774 24.8936 937.224 24.6836C935.674 24.4636 934.744 24.4836 933.344 24.6536C931.934 24.8136 931.194 25.1236 930.204 25.5036C929.214 25.8836 928.874 26.1136 928.364 26.5336C927.864 26.9636 927.784 27.2836 927.684 27.6336C927.584 27.9836 927.744 28.1536 927.864 28.2836C927.984 28.4136 928.174 28.2836 928.294 28.2736C928.414 28.2636 928.274 28.2536 928.454 28.2336C928.644 28.2236 928.724 28.2736 929.214 28.1936C929.694 28.1136 930.004 28.0036 930.874 27.8436C931.744 27.6936 932.394 27.4636 933.584 27.4036C934.764 27.3436 935.524 27.3436 936.804 27.5436C938.074 27.7436 938.844 27.9536 939.954 28.4036C941.064 28.8436 941.604 29.1736 942.344 29.7636C943.094 30.3536 943.354 30.7236 943.664 31.3536C943.984 31.9736 944.034 32.3136 943.914 32.8736C943.784 33.4436 943.614 33.7236 943.044 34.1936C942.474 34.6736 942.024 34.9136 941.074 35.2636C940.134 35.6236 939.504 35.7936 938.324 35.9636C937.144 36.1336 936.414 36.1736 935.174 36.1236C933.944 36.0636 933.234 35.9836 932.144 35.6936C931.054 35.3936 930.514 35.1636 929.724 34.6436C928.934 34.1236 928.614 33.7536 928.204 33.0836C927.794 32.4236 927.724 32.0036 927.674 31.3136C927.624 30.6236 927.774 30.2236 927.964 29.6436C928.144 29.0536 928.384 28.7936 928.594 28.3736C928.804 27.9536 928.914 27.7836 929.014 27.5436C929.124 27.3136 929.114 27.2136 929.114 27.1836C929.114 27.1636 929.084 27.1836 928.994 27.4336C928.904 27.6836 928.864 27.9236 928.654 28.4236C928.444 28.9336 928.334 29.3136 927.944 29.9836C927.564 30.6436 927.314 31.0736 926.744 31.7436C926.184 32.4036 925.854 32.7636 925.134 33.3136C924.414 33.8636 923.994 34.1036 923.144 34.4836C922.294 34.8636 921.804 35.0336 920.884 35.2136C919.954 35.3936 919.474 35.4336 918.514 35.3936C917.554 35.3436 917.034 35.2636 916.084 35.0036C915.124 34.7436 914.634 34.5736 913.724 34.0936C912.814 33.6136 912.364 33.2936 911.514 32.6136C910.664 31.9236 910.234 31.5036 909.454 30.6736C908.674 29.8536 908.354 29.3436 907.604 28.5036C906.854 27.6736 906.494 27.1536 905.684 26.4936C904.884 25.8336 904.424 25.4936 903.564 25.2036C902.704 24.9036 902.254 24.8336 901.384 25.0136C900.524 25.1936 900.044 25.4536 899.234 26.1136C898.424 26.7736 898.024 27.3336 897.334 28.3236C896.644 29.3136 896.294 30.0236 895.784 31.0636C895.264 32.0936 895.084 32.7236 894.764 33.4936C894.434 34.2736 894.414 34.6136 894.184 34.9436C893.944 35.2836 893.924 35.3136 893.604 35.1736C893.284 35.0436 893.094 34.8436 892.584 34.2636C892.064 33.6836 891.704 33.2636 891.024 32.2736C890.334 31.2936 889.914 30.6936 889.164 29.3136C888.404 27.9436 887.994 27.1336 887.264 25.4136C886.544 23.6936 886.144 22.6336 885.534 20.7036C884.914 18.7636 884.614 17.6036 884.184 15.7536C883.744 13.9036 883.604 12.8836 883.364 11.4536C883.124 10.0336 883.084 9.39356 882.984 8.62356C882.894 7.85356 882.764 7.67358 882.884 7.61358C883.014 7.54358 883.214 7.78357 883.594 8.29357C883.984 8.81357 884.324 9.16358 884.814 10.1736C885.304 11.1936 885.664 11.9136 886.064 13.3836C886.464 14.8536 886.694 15.7936 886.824 17.5336C886.964 19.2736 886.974 20.3136 886.734 22.1036C886.484 23.8936 886.284 24.8636 885.604 26.5036C884.934 28.1436 884.464 28.9436 883.334 30.3036C882.214 31.6636 881.504 32.2836 879.984 33.3036C878.474 34.3136 877.564 34.7236 875.754 35.3936C873.944 36.0636 872.854 36.3136 870.924 36.6436C868.994 36.9736 867.914 37.0536 866.094 37.0436C864.284 37.0336 863.344 36.9136 861.854 36.5836C860.364 36.2636 859.654 36.0136 858.654 35.4236C857.664 34.8336 857.284 34.4536 856.874 33.6336C856.454 32.8036 856.424 32.2836 856.564 31.2836C856.704 30.2836 856.994 29.6636 857.574 28.6236C858.164 27.5836 858.654 26.9636 859.484 26.0736C860.304 25.1836 860.844 24.7536 861.704 24.1736C862.564 23.5936 863.054 23.4836 863.764 23.1636C864.484 22.8536 864.774 22.8436 865.274 22.6236C865.774 22.4036 866.064 22.3936 866.274 22.0636C866.484 21.7436 866.564 21.3636 866.324 21.0136Z" fill="black" stroke="black"/>
</svg>
